<svg width="24" height="24" viewBox="0 0 24 24" fill="none" xmlns="http://www.w3.org/2000/svg">
<path fill-rule="evenodd" clip-rule="evenodd" d="M2.68936 4.93934C2.97067 4.65804 3.3522 4.5 3.75002 4.5H20.25C20.6478 4.5 21.0294 4.65804 21.3107 4.93934C21.592 5.22065 21.75 5.60218 21.75 6V18C21.75 18.3978 21.592 18.7794 21.3107 19.0607C21.0294 19.342 20.6478 19.5 20.25 19.5H7.73459C7.73909 19.5 7.74344 19.4984 7.74685 19.4954L7.73458 19.4812L7.25627 18.9281L7.73729 19.5036L4.70916 22.0348L4.7063 22.0372C4.48777 22.218 4.22244 22.3332 3.9411 22.3693C3.65976 22.4055 3.37394 22.3611 3.11681 22.2414C2.85967 22.1216 2.64175 21.9314 2.48834 21.6929C2.33492 21.4543 2.25229 21.1771 2.25005 20.8934L2.25 20.8875L2.25002 6C2.25002 5.60217 2.40806 5.22064 2.68936 4.93934ZM6.77124 18.356C7.03946 18.1264 7.38096 18.0001 7.73421 18H20.25V6L3.75002 6V20.8815L6.77124 18.356Z" fill="white"/>
<path d="M12 13.125C12.6213 13.125 13.125 12.6213 13.125 12C13.125 11.3787 12.6213 10.875 12 10.875C11.3787 10.875 10.875 11.3787 10.875 12C10.875 12.6213 11.3787 13.125 12 13.125Z" fill="white"/>
<path d="M8.125 13.25C8.74632 13.25 9.25 12.7463 9.25 12.125C9.25 11.5037 8.74632 11 8.125 11C7.50368 11 7 11.5037 7 12.125C7 12.7463 7.50368 13.25 8.125 13.25Z" fill="white"/>
<path d="M16.5 13.125C17.1213 13.125 17.625 12.6213 17.625 12C17.625 11.3787 17.1213 10.875 16.5 10.875C15.8787 10.875 15.375 11.3787 15.375 12C15.375 12.6213 15.8787 13.125 16.5 13.125Z" fill="white"/>
</svg>
