<svg width="24" height="24" viewBox="0 0 24 24" fill="none" xmlns="http://www.w3.org/2000/svg">
<path fill-rule="evenodd" clip-rule="evenodd" d="M16.6677 9.2323C16.9536 9.532 16.9424 10.0067 16.6427 10.2927L11.1396 15.5427C10.8496 15.8193 10.3934 15.8191 10.1037 15.5422L7.35684 12.9172C7.05738 12.631 7.0466 12.1563 7.33278 11.8568C7.61895 11.5574 8.0937 11.5466 8.39317 11.8328L10.6223 13.963L15.6073 9.20734C15.907 8.92142 16.3817 8.93259 16.6677 9.2323Z" fill="#234D70"/>
<path fill-rule="evenodd" clip-rule="evenodd" d="M3 4.5C3 3.67157 3.67157 3 4.5 3H19.5C20.3284 3 21 3.67157 21 4.5V19.5C21 20.3284 20.3284 21 19.5 21H4.5C3.67157 21 3 20.3284 3 19.5V4.5ZM19.5 4.5H4.5V19.5H19.5V4.5Z" fill="#234D70"/>
</svg>
