<svg width="22" height="26" viewBox="0 0 22 26" fill="none" xmlns="http://www.w3.org/2000/svg">
<path fill-rule="evenodd" clip-rule="evenodd" d="M0.585787 0.585787C0.960859 0.210714 1.46957 0 2 0H14C14.2652 0 14.5196 0.105357 14.7071 0.292893L21.7071 7.29289C21.8946 7.48043 22 7.73478 22 8V24C22 24.5304 21.7893 25.0391 21.4142 25.4142C21.0391 25.7893 20.5304 26 20 26H2C1.46957 26 0.960861 25.7893 0.585787 25.4142C0.210714 25.0391 0 24.5304 0 24V2C0 1.46957 0.210714 0.960859 0.585787 0.585787ZM13.5858 2L2 2L2 24H20V8.41421L13.5858 2Z" fill="#234D70"/>
<path fill-rule="evenodd" clip-rule="evenodd" d="M14 0C14.5523 0 15 0.447715 15 1V7H21C21.5523 7 22 7.44772 22 8C22 8.55228 21.5523 9 21 9H14C13.4477 9 13 8.55228 13 8V1C13 0.447715 13.4477 0 14 0Z" fill="#234D70"/>
<path fill-rule="evenodd" clip-rule="evenodd" d="M6 14C6 13.4477 6.44772 13 7 13H15C15.5523 13 16 13.4477 16 14C16 14.5523 15.5523 15 15 15H7C6.44772 15 6 14.5523 6 14Z" fill="#234D70"/>
<path fill-rule="evenodd" clip-rule="evenodd" d="M6 18C6 17.4477 6.44772 17 7 17H15C15.5523 17 16 17.4477 16 18C16 18.5523 15.5523 19 15 19H7C6.44772 19 6 18.5523 6 18Z" fill="#234D70"/>
</svg>
