<svg width="24" height="24" viewBox="0 0 24 24" fill="none" xmlns="http://www.w3.org/2000/svg">
<path fill-rule="evenodd" clip-rule="evenodd" d="M4.18934 2.68934C4.47064 2.40804 4.85217 2.25 5.25 2.25H14.25C14.4489 2.25 14.6397 2.32902 14.7803 2.46967L20.0303 7.71967C20.171 7.86032 20.25 8.05109 20.25 8.25V20.25C20.25 20.6478 20.092 21.0294 19.8107 21.3107C19.5294 21.592 19.1478 21.75 18.75 21.75H5.25C4.85218 21.75 4.47065 21.592 4.18934 21.3107C3.90804 21.0294 3.75 20.6478 3.75 20.25V3.75C3.75 3.35217 3.90804 2.97064 4.18934 2.68934ZM13.9393 3.75L5.25 3.75L5.25 20.25H18.75V8.56066L13.9393 3.75Z" fill="white"/>
<path fill-rule="evenodd" clip-rule="evenodd" d="M14.25 2.25C14.6642 2.25 15 2.58579 15 3V7.5H19.5C19.9142 7.5 20.25 7.83579 20.25 8.25C20.25 8.66421 19.9142 9 19.5 9H14.25C13.8358 9 13.5 8.66421 13.5 8.25V3C13.5 2.58579 13.8358 2.25 14.25 2.25Z" fill="white"/>
<path fill-rule="evenodd" clip-rule="evenodd" d="M11.4697 10.7197C11.7626 10.4268 12.2374 10.4268 12.5303 10.7197L15.1553 13.3447C15.4482 13.6376 15.4482 14.1124 15.1553 14.4053C14.8624 14.6982 14.3876 14.6982 14.0947 14.4053L12 12.3107L9.90533 14.4053C9.61244 14.6982 9.13756 14.6982 8.84467 14.4053C8.55178 14.1124 8.55178 13.6376 8.84467 13.3447L11.4697 10.7197Z" fill="white"/>
<path fill-rule="evenodd" clip-rule="evenodd" d="M12 10.5C12.4142 10.5 12.75 10.8358 12.75 11.25V17.25C12.75 17.6642 12.4142 18 12 18C11.5858 18 11.25 17.6642 11.25 17.25V11.25C11.25 10.8358 11.5858 10.5 12 10.5Z" fill="white"/>
</svg>
