<svg width="25" height="26" viewBox="0 0 25 26" fill="none" xmlns="http://www.w3.org/2000/svg">
<path fill-rule="evenodd" clip-rule="evenodd" d="M17 0C17.5523 0 18 0.447715 18 1V7H24C24.5523 7 25 7.44772 25 8C25 8.55228 24.5523 9 24 9H17C16.4477 9 16 8.55228 16 8V1C16 0.447715 16.4477 0 17 0Z" fill="#234D70"/>
<path fill-rule="evenodd" clip-rule="evenodd" d="M3.58579 0.585787C3.96086 0.210714 4.46957 0 5 0H17C17.2652 0 17.5196 0.105357 17.7071 0.292893L24.7071 7.29289C24.8946 7.48043 25 7.73478 25 8V24C25 24.5304 24.7893 25.0391 24.4142 25.4142C24.0391 25.7893 23.5304 26 23 26H22C21.4477 26 21 25.5523 21 25C21 24.4477 21.4477 24 22 24H23V8.41421L16.5858 2L5 2L5 14C5 14.5523 4.55228 15 4 15C3.44772 15 3 14.5523 3 14V2C3 1.46957 3.21071 0.960859 3.58579 0.585787Z" fill="#234D70"/>
<path fill-rule="evenodd" clip-rule="evenodd" d="M10.2812 15.5826C10.5013 15.4611 10.7486 15.3973 11 15.3973C11.2514 15.3973 11.4987 15.4611 11.7188 15.5826C11.9341 15.7014 12.1164 15.8716 12.2497 16.078L17.8319 24.445C18.0366 24.7519 18.0557 25.1465 17.8818 25.4717C17.7078 25.797 17.3689 26 17 26H1C0.634336 26 0.297829 25.8004 0.122479 25.4796C-0.0528703 25.1587 -0.0390988 24.7677 0.158392 24.4599L4.23339 18.1099L4.24573 18.0912C4.38417 17.8858 4.57095 17.7175 4.78965 17.6011C5.00835 17.4848 5.25228 17.4239 5.5 17.4239C5.74773 17.4239 5.99166 17.4848 6.21035 17.6011C6.42905 17.7175 6.61583 17.8858 6.75427 18.0912L6.76636 18.1096L7.56776 19.3571L9.74993 16.0786C9.88322 15.8719 10.0657 15.7015 10.2812 15.5826ZM11.0005 17.8093L8.80436 21.1088C8.66496 21.3157 8.47613 21.4846 8.255 21.6001C8.03388 21.7157 7.78742 21.7742 7.53794 21.7705C7.28847 21.7668 7.04387 21.7009 6.82629 21.5788C6.6102 21.4575 6.42753 21.2846 6.29459 21.0756L5.50021 19.839L2.82993 24H15.1307L11.0005 17.8093Z" fill="#234D70"/>
</svg>
