<svg width="24" height="24" viewBox="0 0 24 24" fill="none" xmlns="http://www.w3.org/2000/svg">
<path fill-rule="evenodd" clip-rule="evenodd" d="M9.375 12C9.375 11.5858 9.71079 11.25 10.125 11.25L20.25 11.25C20.6642 11.25 21 11.5858 21 12C21 12.4142 20.6642 12.75 20.25 12.75L10.125 12.75C9.71079 12.75 9.375 12.4142 9.375 12Z" fill="#000"/>
<path fill-rule="evenodd" clip-rule="evenodd" d="M3 12C3 11.5858 3.33579 11.25 3.75 11.25L6.375 11.25C6.78921 11.25 7.125 11.5858 7.125 12C7.125 12.4142 6.78921 12.75 6.375 12.75L3.75 12.75C3.33579 12.75 3 12.4142 3 12Z" fill="#000"/>
<path fill-rule="evenodd" clip-rule="evenodd" d="M7.125 12C7.125 12.6213 7.62868 13.125 8.25 13.125C8.87132 13.125 9.375 12.6213 9.375 12C9.375 11.3787 8.87132 10.875 8.25 10.875C7.62868 10.875 7.125 11.3787 7.125 12ZM8.25 14.625C6.80025 14.625 5.625 13.4497 5.625 12C5.625 10.5503 6.80025 9.375 8.25 9.375C9.69975 9.375 10.875 10.5503 10.875 12C10.875 13.4497 9.69975 14.625 8.25 14.625Z" fill="#000"/>
<path fill-rule="evenodd" clip-rule="evenodd" d="M16.875 5.25C16.875 4.83579 17.2108 4.5 17.625 4.5L20.25 4.5C20.6642 4.5 21 4.83579 21 5.25C21 5.66421 20.6642 6 20.25 6L17.625 6C17.2108 6 16.875 5.66421 16.875 5.25Z" fill="#000"/>
<path fill-rule="evenodd" clip-rule="evenodd" d="M3 5.25C3 4.83579 3.33579 4.5 3.75 4.5L13.875 4.5C14.2892 4.5 14.625 4.83579 14.625 5.25C14.625 5.66421 14.2892 6 13.875 6L3.75 6C3.33579 6 3 5.66421 3 5.25Z" fill="#000"/>
<path fill-rule="evenodd" clip-rule="evenodd" d="M14.625 5.25C14.625 5.87132 15.1287 6.375 15.75 6.375C16.3713 6.375 16.875 5.87132 16.875 5.25C16.875 4.62868 16.3713 4.125 15.75 4.125C15.1287 4.125 14.625 4.62868 14.625 5.25ZM15.75 7.875C14.3003 7.875 13.125 6.69975 13.125 5.25C13.125 3.80025 14.3003 2.625 15.75 2.625C17.1997 2.625 18.375 3.80025 18.375 5.25C18.375 6.69975 17.1997 7.875 15.75 7.875Z" fill="#000"/>
<path fill-rule="evenodd" clip-rule="evenodd" d="M13.875 18.75C13.875 18.3358 14.2108 18 14.625 18L20.25 18C20.6642 18 21 18.3358 21 18.75C21 19.1642 20.6642 19.5 20.25 19.5L14.625 19.5C14.2108 19.5 13.875 19.1642 13.875 18.75Z" fill="#000"/>
<path fill-rule="evenodd" clip-rule="evenodd" d="M3 18.75C3 18.3358 3.33579 18 3.75 18L10.875 18C11.2892 18 11.625 18.3358 11.625 18.75C11.625 19.1642 11.2892 19.5 10.875 19.5L3.75 19.5C3.33579 19.5 3 19.1642 3 18.75Z" fill="#000"/>
<path fill-rule="evenodd" clip-rule="evenodd" d="M11.625 18.75C11.625 19.3713 12.1287 19.875 12.75 19.875C13.3713 19.875 13.875 19.3713 13.875 18.75C13.875 18.1287 13.3713 17.625 12.75 17.625C12.1287 17.625 11.625 18.1287 11.625 18.75ZM12.75 21.375C11.3003 21.375 10.125 20.1997 10.125 18.75C10.125 17.3003 11.3003 16.125 12.75 16.125C14.1997 16.125 15.375 17.3003 15.375 18.75C15.375 20.1997 14.1997 21.375 12.75 21.375Z" fill="#000"/>
</svg>
